<mxfile host="app.diagrams.net" modified="2020-11-23T19:57:04.725Z" agent="5.0 (X11)" etag="ceFwfbdPNtq-pm_oI1Ix" version="13.10.0" type="github">
  <diagram name="Page-1" id="74e2e168-ea6b-b213-b513-2b3c1d86103e">
    <mxGraphModel dx="1886" dy="886" grid="1" gridSize="10" guides="1" tooltips="1" connect="1" arrows="1" fold="1" page="1" pageScale="1" pageWidth="1100" pageHeight="850" background="#ffffff" math="0" shadow="0">
      <root>
        <mxCell id="0" />
        <mxCell id="1" parent="0" />
        <mxCell id="77e6c97f196da883-1" value="JOURNEY: Subscribed User Cannot Pick Up The Meal" style="swimlane;html=1;childLayout=stackLayout;startSize=20;rounded=0;shadow=0;labelBackgroundColor=none;strokeWidth=1;fontFamily=Verdana;fontSize=8;align=center;" parent="1" vertex="1">
          <mxGeometry x="70" y="40" width="1010" height="480" as="geometry">
            <mxRectangle x="70" y="40" width="70" height="20" as="alternateBounds" />
          </mxGeometry>
        </mxCell>
        <mxCell id="77e6c97f196da883-2" value="&lt;div&gt;Actor&lt;/div&gt;" style="swimlane;html=1;startSize=20;" parent="77e6c97f196da883-1" vertex="1">
          <mxGeometry y="20" width="160" height="460" as="geometry" />
        </mxCell>
        <mxCell id="QJ3G4-R3qcjC6Z-IzL42-1" value="&lt;div&gt;Subscriber&lt;/div&gt;" style="shape=umlActor;verticalLabelPosition=bottom;verticalAlign=top;html=1;outlineConnect=0;" parent="77e6c97f196da883-2" vertex="1">
          <mxGeometry x="65" y="180" width="30" height="60" as="geometry" />
        </mxCell>
        <mxCell id="77e6c97f196da883-4" value="Smart Fridge" style="swimlane;html=1;startSize=20;" parent="77e6c97f196da883-1" vertex="1">
          <mxGeometry x="160" y="20" width="290" height="460" as="geometry">
            <mxRectangle x="320" y="20" width="30" height="730" as="alternateBounds" />
          </mxGeometry>
        </mxCell>
        <mxCell id="SQiz0oExWdAmI7R9zmeA-3" value="Is Code Valid" style="rhombus;whiteSpace=wrap;html=1;" parent="77e6c97f196da883-4" vertex="1">
          <mxGeometry x="61" y="157" width="110" height="106" as="geometry" />
        </mxCell>
        <mxCell id="SQiz0oExWdAmI7R9zmeA-6" value="&lt;div&gt;Provide Meal&lt;/div&gt;" style="ellipse;whiteSpace=wrap;html=1;aspect=fixed;" parent="77e6c97f196da883-4" vertex="1">
          <mxGeometry x="78" y="344" width="76" height="76" as="geometry" />
        </mxCell>
        <mxCell id="SQiz0oExWdAmI7R9zmeA-7" value="&lt;div&gt;Yes&lt;/div&gt;" style="endArrow=classic;html=1;exitX=0.5;exitY=1;exitDx=0;exitDy=0;entryX=0.5;entryY=0;entryDx=0;entryDy=0;" parent="77e6c97f196da883-4" source="SQiz0oExWdAmI7R9zmeA-3" target="SQiz0oExWdAmI7R9zmeA-6" edge="1">
          <mxGeometry x="-0.6667" width="50" height="50" relative="1" as="geometry">
            <mxPoint x="620" y="340" as="sourcePoint" />
            <mxPoint x="80" y="340" as="targetPoint" />
            <mxPoint as="offset" />
          </mxGeometry>
        </mxCell>
        <mxCell id="SQiz0oExWdAmI7R9zmeA-19" value="Some type of error &lt;br&gt;&lt;span class=&quot;ILfuVd&quot;&gt;&lt;span class=&quot;hgKElc&quot;&gt;preventing the meal to be picked by user&lt;br&gt;&lt;/span&gt;&lt;/span&gt;" style="shape=callout;whiteSpace=wrap;html=1;perimeter=calloutPerimeter;" parent="77e6c97f196da883-4" vertex="1">
          <mxGeometry x="130" y="100" width="140" height="90" as="geometry" />
        </mxCell>
        <mxCell id="QJ3G4-R3qcjC6Z-IzL42-25" value="Feedback System" style="swimlane;html=1;startSize=20;" parent="77e6c97f196da883-1" vertex="1">
          <mxGeometry x="450" y="20" width="350" height="460" as="geometry" />
        </mxCell>
        <mxCell id="SQiz0oExWdAmI7R9zmeA-8" value="Review" style="whiteSpace=wrap;html=1;aspect=fixed;" parent="QJ3G4-R3qcjC6Z-IzL42-25" vertex="1">
          <mxGeometry x="130" y="340" width="80" height="80" as="geometry" />
        </mxCell>
        <mxCell id="SQiz0oExWdAmI7R9zmeA-11" value="Feedback" style="whiteSpace=wrap;html=1;aspect=fixed;" parent="QJ3G4-R3qcjC6Z-IzL42-25" vertex="1">
          <mxGeometry x="130" y="170" width="80" height="80" as="geometry" />
        </mxCell>
        <mxCell id="SQiz0oExWdAmI7R9zmeA-27" value="System Admin" style="shape=callout;whiteSpace=wrap;html=1;perimeter=calloutPerimeter;" parent="QJ3G4-R3qcjC6Z-IzL42-25" vertex="1">
          <mxGeometry x="270" y="100" width="120" height="80" as="geometry" />
        </mxCell>
        <mxCell id="QJ3G4-R3qcjC6Z-IzL42-34" value="Ordering System" style="swimlane;html=1;startSize=20;" parent="77e6c97f196da883-1" vertex="1">
          <mxGeometry x="800" y="20" width="210" height="460" as="geometry" />
        </mxCell>
        <mxCell id="SQiz0oExWdAmI7R9zmeA-14" value="Order" style="whiteSpace=wrap;html=1;aspect=fixed;" parent="QJ3G4-R3qcjC6Z-IzL42-34" vertex="1">
          <mxGeometry x="70" y="170" width="80" height="80" as="geometry" />
        </mxCell>
        <mxCell id="1iM9lFli84Yw18FCnRLr-1" value="Update number of Orders within the system. " style="text;html=1;strokeColor=none;fillColor=none;spacing=5;spacingTop=-20;whiteSpace=wrap;overflow=hidden;rounded=0;" parent="QJ3G4-R3qcjC6Z-IzL42-34" vertex="1">
          <mxGeometry x="60" y="270" width="100" height="30" as="geometry" />
        </mxCell>
        <mxCell id="SQiz0oExWdAmI7R9zmeA-4" value="provide access code" style="endArrow=classic;html=1;entryX=0;entryY=0.5;entryDx=0;entryDy=0;exitX=0.5;exitY=0.5;exitDx=0;exitDy=0;exitPerimeter=0;" parent="77e6c97f196da883-1" source="QJ3G4-R3qcjC6Z-IzL42-1" target="SQiz0oExWdAmI7R9zmeA-3" edge="1">
          <mxGeometry width="50" height="50" relative="1" as="geometry">
            <mxPoint x="95" y="234" as="sourcePoint" />
            <mxPoint x="145" y="184" as="targetPoint" />
          </mxGeometry>
        </mxCell>
        <mxCell id="SQiz0oExWdAmI7R9zmeA-10" value="(write review)" style="endArrow=none;dashed=1;html=1;dashPattern=1 3;strokeWidth=2;entryX=0;entryY=0.5;entryDx=0;entryDy=0;" parent="77e6c97f196da883-1" source="SQiz0oExWdAmI7R9zmeA-6" target="SQiz0oExWdAmI7R9zmeA-8" edge="1">
          <mxGeometry x="-0.0679" y="1" width="50" height="50" relative="1" as="geometry">
            <mxPoint x="400" y="430" as="sourcePoint" />
            <mxPoint x="450" y="380" as="targetPoint" />
            <mxPoint as="offset" />
          </mxGeometry>
        </mxCell>
        <mxCell id="SQiz0oExWdAmI7R9zmeA-12" value="&lt;div&gt;Yes&lt;/div&gt;" style="endArrow=classic;html=1;exitX=1;exitY=0.5;exitDx=0;exitDy=0;" parent="77e6c97f196da883-1" source="SQiz0oExWdAmI7R9zmeA-3" target="SQiz0oExWdAmI7R9zmeA-11" edge="1">
          <mxGeometry x="-0.7467" width="50" height="50" relative="1" as="geometry">
            <mxPoint x="580" y="340" as="sourcePoint" />
            <mxPoint x="480" y="230.0000000000001" as="targetPoint" />
            <Array as="points">
              <mxPoint x="350" y="230" />
            </Array>
            <mxPoint as="offset" />
          </mxGeometry>
        </mxCell>
        <mxCell id="SQiz0oExWdAmI7R9zmeA-26" value="(impossible to pick up the meal)" style="edgeLabel;html=1;align=center;verticalAlign=middle;resizable=0;points=[];" parent="SQiz0oExWdAmI7R9zmeA-12" vertex="1" connectable="0">
          <mxGeometry x="0.1493" relative="1" as="geometry">
            <mxPoint as="offset" />
          </mxGeometry>
        </mxCell>
        <mxCell id="SQiz0oExWdAmI7R9zmeA-15" value="&lt;div&gt;approve complain &amp;amp;&lt;br&gt;&lt;/div&gt;&lt;div&gt;create new order&lt;br&gt;&lt;/div&gt;" style="endArrow=classic;html=1;exitX=1;exitY=0.5;exitDx=0;exitDy=0;entryX=-0.002;entryY=0.515;entryDx=0;entryDy=0;entryPerimeter=0;" parent="77e6c97f196da883-1" source="SQiz0oExWdAmI7R9zmeA-11" target="SQiz0oExWdAmI7R9zmeA-14" edge="1">
          <mxGeometry width="50" height="50" relative="1" as="geometry">
            <mxPoint x="750" y="283" as="sourcePoint" />
            <mxPoint x="800" y="233" as="targetPoint" />
          </mxGeometry>
        </mxCell>
        <mxCell id="SQiz0oExWdAmI7R9zmeA-17" value="request&amp;nbsp; retype code" style="endArrow=classic;html=1;exitX=0.5;exitY=0;exitDx=0;exitDy=0;" parent="77e6c97f196da883-1" source="SQiz0oExWdAmI7R9zmeA-3" target="QJ3G4-R3qcjC6Z-IzL42-1" edge="1">
          <mxGeometry width="50" height="50" relative="1" as="geometry">
            <mxPoint x="260" y="210" as="sourcePoint" />
            <mxPoint x="70" y="177" as="targetPoint" />
            <Array as="points">
              <mxPoint x="80" y="177" />
            </Array>
          </mxGeometry>
        </mxCell>
        <mxCell id="SQiz0oExWdAmI7R9zmeA-18" value="No" style="edgeLabel;html=1;align=center;verticalAlign=middle;resizable=0;points=[];" parent="SQiz0oExWdAmI7R9zmeA-17" vertex="1" connectable="0">
          <mxGeometry x="-0.0393" y="-1" relative="1" as="geometry">
            <mxPoint x="79.2" as="offset" />
          </mxGeometry>
        </mxCell>
      </root>
    </mxGraphModel>
  </diagram>
</mxfile>
